<svg xmlns="http://www.w3.org/2000/svg" id="Layer_1" x="0" y="0" version="1.1" viewBox="0 0 29 29" xml:space="preserve"><path fill="none" stroke="#7b7a7a" stroke-linecap="round" stroke-linejoin="round" stroke-miterlimit="10" stroke-width="2" d="M18.5 22l-4 4-4-4M14.5 25.125V14"/><path fill="none" stroke="#7b7a7a" stroke-miterlimit="10" stroke-width="2" d="M17.5 18h3.75a4.5 4.5 0 0 0 4.5-4.5c0-1.961-1.263-3.613-3.014-4.229.004-.09.014-.179.014-.271a6 6 0 0 0-6-6 5.993 5.993 0 0 0-5.342 3.279A3.729 3.729 0 0 0 10 6C8.097 6 6.542 7.423 6.299 9.26 4.53 9.866 3.25 11.525 3.25 13.5a4.5 4.5 0 0 0 4.5 4.5h3.75"/></svg>